HIERARCHY
ROOT Hips
{
	OFFSET 0.000000 71.427986 0.000000
	CHANNELS 6 Xposition Yposition Zposition Xrotation Yrotation Zrotation
	JOINT Pelvis
	{
		OFFSET 0.000000 0.000000 0.000000
		CHANNELS 3 Xrotation Yrotation Zrotation
		JOINT LeftUpLeg
		{
			OFFSET 6.797100 -2.508499 -1.318700
			CHANNELS 3 Xrotation Yrotation Zrotation
			JOINT LeftLeg
			{
				OFFSET 0.069008 -29.241863 0.690200
				CHANNELS 3 Xrotation Yrotation Zrotation
				JOINT LeftFoot
				{
					OFFSET -0.069008 -29.568123 -0.266800
					CHANNELS 3 Xrotation Yrotation Zrotation
					JOINT LeftToeBase
					{
						OFFSET 3.145500 -8.631000 16.059900
						CHANNELS 3 Xrotation Yrotation Zrotation
						End Site
						{
							OFFSET 0.000000 18.501587 0.000000
						}
					}
				}
			}
			JOINT Left_ShortSleeve
			{
				OFFSET 0.265923 -10.480953 1.153800
				CHANNELS 3 Xrotation Yrotation Zrotation
				End Site
				{
					OFFSET 1.725763 19.823879 0.000000
				}
			}
		}
		JOINT RightUpLeg
		{
			OFFSET -6.797100 -2.508499 -1.318700
			CHANNELS 3 Xrotation Yrotation Zrotation
			JOINT RightLeg
			{
				OFFSET -0.082453 -29.241932 0.688000
				CHANNELS 3 Xrotation Yrotation Zrotation
				JOINT RightFoot
				{
					OFFSET 0.082453 -29.568058 -0.264600
					CHANNELS 3 Xrotation Yrotation Zrotation
					JOINT RightToeBase
					{
						OFFSET -3.115300 -8.682800 16.113400
						CHANNELS 3 Xrotation Yrotation Zrotation
						End Site
						{
							OFFSET 0.000000 18.567114 0.000000
						}
					}
				}
			}
			JOINT Right_ShortSleeve
			{
				OFFSET -0.265923 -10.480953 1.153800
				CHANNELS 3 Xrotation Yrotation Zrotation
				End Site
				{
					OFFSET -1.725766 19.823910 0.000000
				}
			}
		}
	}
	JOINT Spine
	{
		OFFSET 0.000000 13.368103 0.470500
		CHANNELS 3 Xrotation Yrotation Zrotation
		JOINT Spine1
		{
			OFFSET 0.147000 13.837402 0.538800
			CHANNELS 3 Xrotation Yrotation Zrotation
			JOINT Spine2
			{
				OFFSET 0.168000 16.242897 -1.435500
				CHANNELS 3 Xrotation Yrotation Zrotation
				JOINT Neck
				{
					OFFSET 0.217200 18.631500 -1.679100
					CHANNELS 3 Xrotation Yrotation Zrotation
					JOINT Head
					{
						OFFSET 0.000000 6.599396 1.385900
						CHANNELS 3 Xrotation Yrotation Zrotation
						JOINT Hat
						{
							OFFSET -0.532200 27.220596 -10.096100
							CHANNELS 3 Xrotation Yrotation Zrotation
							End Site
							{
								OFFSET 0.000000 22.029861 0.000000
							}
						}
						JOINT HairD
						{
							OFFSET -10.777400 17.437393 -1.325900
							CHANNELS 3 Xrotation Yrotation Zrotation
							JOINT HairD1
							{
								OFFSET -3.290299 -11.051193 1.062200
								CHANNELS 3 Xrotation Yrotation Zrotation
								End Site
								{
									OFFSET 0.000000 11.579437 0.000000
								}
							}
						}
						JOINT HairB
						{
							OFFSET -10.777400 17.437393 1.467900
							CHANNELS 3 Xrotation Yrotation Zrotation
							JOINT HairB1
							{
								OFFSET -1.561200 -12.956299 3.590200
								CHANNELS 3 Xrotation Yrotation Zrotation
								End Site
								{
									OFFSET 0.000000 13.534866 0.000000
								}
							}
						}
						JOINT HairA
						{
							OFFSET 9.713100 17.437393 1.467900
							CHANNELS 3 Xrotation Yrotation Zrotation
							JOINT HairA1
							{
								OFFSET 1.561200 -12.956299 3.590200
								CHANNELS 3 Xrotation Yrotation Zrotation
								End Site
								{
									OFFSET 0.000000 13.534866 0.000000
								}
							}
						}
						JOINT HairC
						{
							OFFSET 9.713100 17.437393 -1.325900
							CHANNELS 3 Xrotation Yrotation Zrotation
							JOINT HairC1
							{
								OFFSET 3.290300 -11.051193 1.062200
								CHANNELS 3 Xrotation Yrotation Zrotation
								End Site
								{
									OFFSET 0.000000 11.579437 0.000000
								}
							}
						}
					}
				}
				JOINT LeftShoulder
				{
					OFFSET 5.101800 15.108002 -2.763700
					CHANNELS 3 Xrotation Yrotation Zrotation
					JOINT LeftArm
					{
						OFFSET 9.825497 2.506317 -1.597400
						CHANNELS 3 Xrotation Yrotation Zrotation
						JOINT LeftForeArm
						{
							OFFSET 21.966244 0.000000 0.000000
							CHANNELS 3 Xrotation Yrotation Zrotation
							JOINT LeftHand
							{
								OFFSET 33.879036 0.000000 0.000000
								CHANNELS 3 Xrotation Yrotation Zrotation
								JOINT LeftHandThumb1
								{
									OFFSET 6.715286 -2.359680 3.363841
									CHANNELS 3 Xrotation Yrotation Zrotation
									JOINT LeftHandThumb2
									{
										OFFSET 2.507072 -1.447464 1.447461
										CHANNELS 3 Xrotation Yrotation Zrotation
										JOINT LeftHandThumb3
										{
											OFFSET 2.898338 -1.673355 1.673357
											CHANNELS 3 Xrotation Yrotation Zrotation
											End Site
											{
												OFFSET -0.295959 3.727692 -0.131651
											}
										}
									}
								}
								JOINT LeftHandIndex1
								{
									OFFSET 14.190811 -0.254547 3.840278
									CHANNELS 3 Xrotation Yrotation Zrotation
									JOINT LeftHandIndex2
									{
										OFFSET 3.551727 0.000000 -0.000000
										CHANNELS 3 Xrotation Yrotation Zrotation
										JOINT LeftHandIndex3
										{
											OFFSET 2.894196 0.000000 0.000000
											CHANNELS 3 Xrotation Yrotation Zrotation
											End Site
											{
												OFFSET -1.000603 2.690872 0.366626
											}
										}
									}
								}
								JOINT LeftHandMiddle1
								{
									OFFSET 13.776489 0.000000 0.000000
									CHANNELS 3 Xrotation Yrotation Zrotation
									JOINT LeftHandMiddle2
									{
										OFFSET 3.438232 0.000000 0.000000
										CHANNELS 3 Xrotation Yrotation Zrotation
										JOINT LeftHandMiddle3
										{
											OFFSET 3.691551 0.000000 0.000000
											CHANNELS 3 Xrotation Yrotation Zrotation
											End Site
											{
												OFFSET -1.082298 3.499527 0.457670
											}
										}
									}
								}
								JOINT LeftHandRing1
								{
									OFFSET 13.966164 -0.268127 -3.067488
									CHANNELS 3 Xrotation Yrotation Zrotation
									JOINT LeftHandRing2
									{
										OFFSET 3.162567 0.000000 0.000000
										CHANNELS 3 Xrotation Yrotation Zrotation
										JOINT LeftHandRing3
										{
											OFFSET 3.324348 0.000000 0.000000
											CHANNELS 3 Xrotation Yrotation Zrotation
											End Site
											{
												OFFSET -0.861900 3.184998 0.405154
											}
										}
									}
								}
								JOINT LeftHandPinky1
								{
									OFFSET 13.131393 -0.168503 -5.746925
									CHANNELS 3 Xrotation Yrotation Zrotation
									JOINT LeftHandPinky2
									{
										OFFSET 2.849182 0.000000 0.000000
										CHANNELS 3 Xrotation Yrotation Zrotation
										JOINT LeftHandPinky3
										{
											OFFSET 2.805038 0.000000 0.000000
											CHANNELS 3 Xrotation Yrotation Zrotation
											End Site
											{
												OFFSET -0.882500 2.642609 0.325652
											}
										}
									}
								}
							}
							JOINT Left_Sleeve
							{
								OFFSET 6.592125 -0.646545 0.805568
								CHANNELS 3 Xrotation Yrotation Zrotation
								End Site
								{
									OFFSET -0.000179 20.275787 -0.000000
								}
							}
						}
					}
				}
				JOINT RightShoulder
				{
					OFFSET -5.731700 15.108002 -2.763700
					CHANNELS 3 Xrotation Yrotation Zrotation
					JOINT RightArm
					{
						OFFSET -9.825497 2.506317 -1.597400
						CHANNELS 3 Xrotation Yrotation Zrotation
						JOINT RightForeArm
						{
							OFFSET -21.966242 0.000000 0.000000
							CHANNELS 3 Xrotation Yrotation Zrotation
							JOINT RightHand
							{
								OFFSET -33.879032 0.000000 0.000000
								CHANNELS 3 Xrotation Yrotation Zrotation
								JOINT RightHandThumb1
								{
									OFFSET -6.715286 -2.359680 3.363841
									CHANNELS 3 Xrotation Yrotation Zrotation
									JOINT RightHandThumb2
									{
										OFFSET -2.507072 -1.447464 1.447461
										CHANNELS 3 Xrotation Yrotation Zrotation
										JOINT RightHandThumb3
										{
											OFFSET -2.898338 -1.673355 1.673357
											CHANNELS 3 Xrotation Yrotation Zrotation
											End Site
											{
												OFFSET 0.295959 3.727692 -0.131651
											}
										}
									}
								}
								JOINT RightHandIndex1
								{
									OFFSET -14.190811 -0.254547 3.840278
									CHANNELS 3 Xrotation Yrotation Zrotation
									JOINT RightHandIndex2
									{
										OFFSET -3.551727 0.000000 -0.000000
										CHANNELS 3 Xrotation Yrotation Zrotation
										JOINT RightHandIndex3
										{
											OFFSET -2.894196 0.000000 0.000000
											CHANNELS 3 Xrotation Yrotation Zrotation
											End Site
											{
												OFFSET 1.000603 2.690872 0.366626
											}
										}
									}
								}
								JOINT RightHandMiddle1
								{
									OFFSET -13.776489 0.000000 0.000000
									CHANNELS 3 Xrotation Yrotation Zrotation
									JOINT RightHandMiddle2
									{
										OFFSET -3.438232 0.000000 0.000000
										CHANNELS 3 Xrotation Yrotation Zrotation
										JOINT RightHandMiddle3
										{
											OFFSET -3.691551 0.000000 0.000000
											CHANNELS 3 Xrotation Yrotation Zrotation
											End Site
											{
												OFFSET 1.082298 3.499527 0.457670
											}
										}
									}
								}
								JOINT RightHandRing1
								{
									OFFSET -13.966164 -0.268127 -3.067488
									CHANNELS 3 Xrotation Yrotation Zrotation
									JOINT RightHandRing2
									{
										OFFSET -3.162567 0.000000 0.000000
										CHANNELS 3 Xrotation Yrotation Zrotation
										JOINT RightHandRing3
										{
											OFFSET -3.324348 0.000000 0.000000
											CHANNELS 3 Xrotation Yrotation Zrotation
											End Site
											{
												OFFSET 0.861900 3.184998 0.405154
											}
										}
									}
								}
								JOINT RightHandPinky1
								{
									OFFSET -13.131393 -0.168503 -5.746925
									CHANNELS 3 Xrotation Yrotation Zrotation
									JOINT RightHandPinky2
									{
										OFFSET -2.849182 0.000000 0.000000
										CHANNELS 3 Xrotation Yrotation Zrotation
										JOINT RightHandPinky3
										{
											OFFSET -2.805038 0.000000 0.000000
											CHANNELS 3 Xrotation Yrotation Zrotation
											End Site
											{
												OFFSET 0.882500 2.642609 0.325652
											}
										}
									}
								}
							}
							JOINT Right_Sleeve
							{
								OFFSET -6.592125 -0.646545 0.805568
								CHANNELS 3 Xrotation Yrotation Zrotation
								End Site
								{
									OFFSET 0.000179 20.275787 -0.000000
								}
							}
						}
					}
				}
				JOINT Bind_Right_JacketString
				{
					OFFSET -3.534800 11.969597 7.200700
					CHANNELS 3 Xrotation Yrotation Zrotation
					JOINT Bind_Right_JacketString1
					{
						OFFSET -0.319900 -6.102600 2.794100
						CHANNELS 3 Xrotation Yrotation Zrotation
						End Site
						{
							OFFSET 0.000000 6.719452 0.000000
						}
					}
				}
				JOINT Bind_Left_JacketString
				{
					OFFSET 2.904800 11.969597 7.200700
					CHANNELS 3 Xrotation Yrotation Zrotation
					JOINT Bind_Left_JacketString1
					{
						OFFSET 0.364800 -5.904503 3.186800
						CHANNELS 3 Xrotation Yrotation Zrotation
						End Site
						{
							OFFSET 0.000000 6.719513 0.000000
						}
					}
				}
				JOINT HairE
				{
					OFFSET 5.915200 17.612701 -11.592200
					CHANNELS 3 Xrotation Yrotation Zrotation
					JOINT HairE1
					{
						OFFSET 0.289200 -7.171898 -1.284500
						CHANNELS 3 Xrotation Yrotation Zrotation
						End Site
						{
							OFFSET 0.000000 7.291756 0.000000
						}
					}
				}
				JOINT HairF
				{
					OFFSET -0.864800 17.612701 -11.592200
					CHANNELS 3 Xrotation Yrotation Zrotation
					JOINT HairF1
					{
						OFFSET 0.000000 -14.087097 -2.127501
						CHANNELS 3 Xrotation Yrotation Zrotation
						End Site
						{
							OFFSET 0.000000 14.246841 0.000000
						}
					}
				}
				JOINT HairG
				{
					OFFSET -8.087700 17.612701 -11.592200
					CHANNELS 3 Xrotation Yrotation Zrotation
					JOINT HairG1
					{
						OFFSET -0.293600 -6.081398 -0.910100
						CHANNELS 3 Xrotation Yrotation Zrotation
						End Site
						{
							OFFSET 0.000000 6.156120 0.000000
						}
					}
				}
			}
		}
	}
	JOINT Pouch
	{
		OFFSET 0.000000 4.394501 10.847300
		CHANNELS 3 Xrotation Yrotation Zrotation
		End Site
		{
			OFFSET 0.000000 21.880577 0.000000
		}
	}
	JOINT Bag
	{
		OFFSET -13.229000 4.813004 -0.593300
		CHANNELS 3 Xrotation Yrotation Zrotation
		End Site
		{
			OFFSET 0.000000 21.880577 0.000000
		}
	}
	JOINT OccupyGuyFacialAnim_Joint
	{
		OFFSET 1.000000 -70.206398 -1.655000
		CHANNELS 3 Xrotation Yrotation Zrotation
		End Site
		{
			OFFSET 0.000000 21.880577 0.000000
		}
	}
}
MOTION
Frames: 4
Frame Time: 0.033333
-0.281797 27.074379 1.039495 5.241045 -10.652605 4.707677 -0.000000 -0.000001 0.000000 -121.352476 -7.670942 11.700299 119.945703 7.994834 1.572975 -0.424888 5.797882 -7.023676 0.000000 -0.000000 -0.000000 -0.000000 0.000001 0.000000 -56.473910 -4.402093 -21.695874 154.248921 -16.295197 -1.872545 -7.749201 -20.219262 -14.779880 -0.000001 -0.000002 -0.000000 0.000003 -0.000001 -0.000001 20.661602 -11.264900 -4.848259 5.040444 -2.382798 -1.729142 5.454362 -4.547885 0.328084 5.208924 7.760187 -1.445041 -21.043673 15.131808 1.547806 -0.000002 0.000000 -0.000000 -0.000002 0.000000 -0.000000 -0.000002 0.000000 0.000000 -0.000002 0.000000 0.000000 -0.000002 0.000000 -0.000000 -0.000002 0.000000 0.000000 -0.000002 0.000000 -0.000000 -0.000002 0.000000 -0.000000 -0.000002 0.000000 -0.000000 3.271883 -13.946933 -1.973424 -35.636413 -8.423174 -32.266814 0.000403 -97.350003 0.000400 -149.101759 -27.134291 10.128066 9.873047 -5.863805 -9.427550 0.997804 0.731241 -1.434371 -0.000002 -0.000002 -0.000001 -3.156942 0.551118 -39.712837 4.788058 5.754015 -79.514856 0.000002 0.000001 -0.000000 1.015386 5.899912 -50.379124 5.070881 5.798991 -82.324161 0.000004 0.000000 0.000001 2.566139 7.151490 -54.470967 5.460174 5.838070 -86.162775 -0.000002 -0.000001 0.000003 4.135198 8.114457 -58.588687 4.970048 5.784586 -81.325013 -0.000004 -0.000002 0.000001 -0.000002 -0.000001 -0.000002 -0.146403 25.944395 1.008399 -24.700857 20.507547 46.629333 0.000071 110.265488 -0.000065 -37.778688 -20.993092 8.017206 20.470560 7.475555 18.843594 4.151722 -12.160907 -33.847986 0.000002 0.000000 0.000002 -0.887084 1.427987 12.684542 1.917395 -3.767447 53.934326 -0.000000 0.000000 0.000000 0.770919 -5.199582 54.618823 5.563838 -4.568261 101.238573 -0.000001 -0.000000 -0.000001 6.934454 -8.544257 63.908769 2.909312 -4.317395 67.934714 0.000001 -0.000001 -0.000001 8.373388 -8.171790 73.989923 2.173696 -3.940977 57.745390 -0.000001 0.000002 -0.000003 -0.000002 -0.000000 0.000001 0.000001 0.000001 0.000000 0.000001 -0.000001 0.000001 0.000001 0.000001 -0.000000 0.000001 0.000001 -0.000000 0.000001 0.000001 0.000000 0.000001 -0.000001 0.000001 0.000001 0.000001 -0.000000 0.000001 0.000001 -0.000000 0.000001 0.000001 0.000000 0.000001 -0.000001 0.000001 -0.000000 -0.000001 0.000000 -0.000000 -0.000001 0.000000 -0.000000 -0.000001 0.000000 
-0.288352 27.074020 1.032329 5.226291 -10.657835 4.711841 0.000000 -0.000000 -0.000000 -121.327218 -7.701469 11.676242 119.933327 7.998952 1.571056 -0.404342 5.799226 -7.066937 -0.000000 0.000000 -0.000000 0.000002 0.000000 0.000000 -56.486225 -4.391431 -21.693890 154.253375 -16.237964 -1.871257 -7.696569 -20.210311 -14.822205 -0.000000 -0.000001 0.000001 0.000001 -0.000002 -0.000003 20.676268 -11.261875 -4.848772 5.043371 -2.381455 -1.729289 5.457247 -4.546562 0.327944 5.206293 7.761262 -1.442437 -21.065541 15.149243 1.553375 0.000000 0.000000 -0.000000 0.000000 0.000000 -0.000000 0.000000 0.000000 -0.000000 0.000000 0.000000 -0.000000 -0.000001 -0.000000 0.000000 0.000000 0.000000 -0.000000 -0.000001 -0.000000 0.000000 0.000000 0.000000 -0.000000 0.000000 0.000000 -0.000000 3.271805 -13.948513 -1.974616 -35.674122 -8.445761 -32.282093 0.000508 -97.307752 0.000559 -149.052896 -27.102641 10.216248 9.873049 -5.863805 -9.427548 0.997804 0.731243 -1.434371 -0.000000 -0.000002 -0.000001 -3.156942 0.551119 -39.712837 4.788060 5.754014 -79.514856 0.000002 -0.000001 -0.000000 1.015388 5.899916 -50.379120 5.070881 5.798995 -82.324161 -0.000000 0.000003 -0.000001 2.566139 7.151489 -54.470964 5.460171 5.838070 -86.162775 -0.000001 0.000000 -0.000003 4.135197 8.114458 -58.588687 4.970048 5.784586 -81.325007 0.000001 0.000002 0.000003 -0.000003 -0.000001 -0.000000 -0.142185 25.947793 0.994209 -24.697643 20.500768 46.643358 -0.000001 110.254512 -0.000008 -37.829139 -20.979932 7.974416 20.470553 7.475557 18.843590 4.151721 -12.160908 -33.847986 -0.000000 -0.000001 0.000001 -0.887082 1.427990 12.684542 1.917393 -3.767450 53.934322 -0.000001 -0.000001 0.000000 0.770921 -5.199580 54.618823 5.563839 -4.568263 101.238580 -0.000000 -0.000001 0.000001 6.934455 -8.544258 63.908762 2.909312 -4.317398 67.934714 -0.000001 -0.000003 0.000000 8.373388 -8.171789 73.989923 2.173697 -3.940975 57.745390 0.000000 0.000002 -0.000003 0.000001 -0.000000 -0.000001 0.000000 -0.000002 -0.000001 0.000002 0.000000 -0.000000 0.000000 -0.000002 -0.000001 0.000000 -0.000002 -0.000001 0.000000 -0.000002 -0.000001 0.000002 0.000000 -0.000000 0.000000 -0.000002 -0.000001 0.000000 -0.000002 -0.000001 0.000000 -0.000002 -0.000001 0.000002 0.000000 -0.000000 0.000000 -0.000000 -0.000000 0.000000 -0.000000 -0.000000 0.000000 -0.000000 -0.000000 
-0.295468 27.073624 1.024492 5.209952 -10.663571 4.715927 -0.000000 0.000000 -0.000000 -121.299775 -7.734317 11.651135 119.919872 8.003024 1.568936 -0.382107 5.800617 -7.112670 0.000000 -0.000002 0.000000 0.000003 0.000001 -0.000000 -56.499072 -4.381236 -21.691074 154.258689 -16.178982 -1.869967 -7.642472 -20.200821 -14.866288 -0.000001 0.000001 -0.000001 -0.000000 0.000001 0.000001 20.691541 -11.258634 -4.849545 5.046406 -2.380005 -1.729507 5.460235 -4.545117 0.327728 5.203714 7.762399 -1.439732 -21.088952 15.167402 1.559766 -0.000002 -0.000000 -0.000000 -0.000002 -0.000000 -0.000000 -0.000002 -0.000000 -0.000000 -0.000002 -0.000000 -0.000000 -0.000002 -0.000000 0.000000 -0.000002 -0.000000 -0.000000 -0.000002 -0.000000 0.000000 -0.000002 -0.000000 -0.000000 -0.000002 -0.000000 -0.000000 3.271708 -13.950513 -1.975937 -35.712310 -8.467999 -32.297277 0.000381 -97.265042 0.000403 -149.002120 -27.071241 10.309398 9.873051 -5.863805 -9.427551 0.997804 0.731242 -1.434372 0.000001 -0.000000 -0.000001 -3.156938 0.551117 -39.712837 4.788063 5.754016 -79.514849 0.000001 0.000002 0.000000 1.015390 5.899916 -50.379124 5.070881 5.798995 -82.324168 -0.000002 -0.000001 -0.000001 2.566143 7.151492 -54.470964 5.460174 5.838067 -86.162775 0.000000 0.000001 0.000002 4.135201 8.114463 -58.588687 4.970048 5.784585 -81.325007 -0.000000 0.000004 0.000002 0.000001 0.000002 0.000002 -0.137427 25.950814 0.978367 -24.694158 20.494708 46.657917 0.000155 110.242498 -0.000139 -37.884191 -20.965938 7.929383 20.470557 7.475552 18.843595 4.151721 -12.160908 -33.847986 -0.000000 0.000000 -0.000000 -0.887084 1.427990 12.684542 1.917395 -3.767450 53.934326 -0.000002 0.000001 -0.000003 0.770920 -5.199580 54.618820 5.563838 -4.568262 101.238580 0.000001 -0.000001 -0.000001 6.934455 -8.544258 63.908769 2.909312 -4.317396 67.934714 0.000001 0.000001 -0.000001 8.373387 -8.171788 73.989923 2.173697 -3.940977 57.745384 0.000002 0.000001 -0.000001 -0.000001 0.000001 -0.000000 -0.000000 -0.000000 -0.000000 -0.000000 -0.000000 0.000000 -0.000000 -0.000000 0.000000 -0.000000 -0.000000 0.000000 -0.000000 -0.000000 -0.000000 -0.000000 -0.000000 -0.000000 -0.000000 -0.000000 0.000000 -0.000000 -0.000000 0.000000 -0.000000 -0.000000 -0.000000 -0.000000 -0.000000 -0.000000 -0.000000 0.000000 -0.000000 -0.000000 0.000000 -0.000000 -0.000000 0.000000 -0.000000 
-0.303074 27.073166 1.016074 5.192246 -10.669754 4.719959 -0.000001 -0.000000 -0.000000 -121.270637 -7.769255 11.625110 119.905555 8.007009 1.566644 -0.358369 5.802066 -7.160575 0.000000 -0.000000 -0.000000 -0.000001 -0.000001 0.000000 -56.511670 -4.371622 -21.687521 154.264604 -16.118440 -1.868693 -7.587579 -20.190806 -14.911753 0.000001 -0.000000 0.000000 -0.000000 0.000001 -0.000001 20.707288 -11.255189 -4.850552 5.049558 -2.378468 -1.729785 5.463295 -4.543588 0.327453 5.201199 7.763594 -1.436960 -21.113703 15.186169 1.566863 0.000002 0.000000 -0.000000 0.000002 0.000000 -0.000000 0.000002 0.000000 -0.000000 0.000002 0.000000 -0.000000 0.000000 0.000000 -0.000000 0.000002 0.000000 -0.000000 0.000000 0.000000 -0.000000 0.000002 0.000000 -0.000000 0.000002 0.000000 -0.000000 3.271582 -13.952894 -1.977358 -35.750928 -8.489922 -32.312314 -0.000596 -97.222053 -0.000556 -148.949651 -27.040130 10.406839 9.873050 -5.863804 -9.427550 0.997804 0.731248 -1.434370 -0.000000 0.000001 0.000001 -3.156942 0.551120 -39.712837 4.788058 5.754014 -79.514863 0.000002 0.000000 -0.000004 1.015391 5.899916 -50.379127 5.070877 5.798991 -82.324161 0.000001 -0.000000 -0.000003 2.566139 7.151493 -54.470964 5.460172 5.838067 -86.162775 -0.000002 -0.000000 0.000002 4.135199 8.114462 -58.588680 4.970049 5.784585 -81.325007 -0.000001 0.000001 0.000003 -0.000002 0.000001 0.000001 -0.132217 25.953525 0.961087 -24.690459 20.489311 46.672974 -0.000020 110.229629 0.000026 -37.943190 -20.951192 7.882485 20.470553 7.475552 18.843594 4.151723 -12.160906 -33.847983 0.000001 -0.000001 0.000002 -0.887082 1.427988 12.684542 1.917394 -3.767448 53.934319 -0.000003 0.000000 -0.000001 0.770920 -5.199582 54.618823 5.563838 -4.568262 101.238573 0.000000 -0.000001 -0.000001 6.934455 -8.544258 63.908755 2.909313 -4.317396 67.934714 0.000001 -0.000002 -0.000000 8.373389 -8.171789 73.989916 2.173695 -3.940976 57.745390 -0.000001 0.000001 0.000001 0.000002 0.000001 0.000002 -0.000000 0.000001 -0.000001 0.000002 -0.000002 -0.000001 -0.000000 0.000001 -0.000001 -0.000000 0.000001 -0.000001 -0.000000 0.000001 -0.000001 0.000002 -0.000002 -0.000001 -0.000000 0.000001 -0.000001 -0.000000 0.000001 -0.000001 -0.000000 0.000001 -0.000001 0.000002 -0.000002 -0.000001 -0.000001 -0.000000 -0.000000 -0.000001 -0.000000 -0.000000 -0.000001 -0.000000 -0.000000 
